G04 DipTrace 3.2.0.1*
G04 Top.gbr*
%MOIN*%
G04 #@! TF.FileFunction,Copper,L1,Top*
G04 #@! TF.Part,Single*
G04 #@! TA.AperFunction,Conductor*
%ADD14C,0.047244*%
%ADD15C,0.023622*%
%ADD16C,0.007874*%
%ADD17C,0.005906*%
%ADD18R,0.059055X0.051181*%
%ADD19R,0.070866X0.062992*%
%ADD20R,0.051181X0.059055*%
%ADD21R,0.062992X0.070866*%
%ADD23R,0.081995X0.061995*%
%ADD24R,0.059055X0.098425*%
%ADD25R,0.037402X0.03937*%
%ADD27R,0.084646X0.037402*%
%ADD28R,0.084646X0.127953*%
%ADD29R,0.216535X0.137795*%
%ADD30R,0.137795X0.216535*%
%FSLAX26Y26*%
G04*
G70*
G90*
G75*
G01*
G04 Top*
%LPD*%
X656201Y596555D2*
D14*
Y647638D1*
X824950D1*
D15*
Y581004D1*
X968898Y882874D2*
X905512D1*
D14*
Y779528D1*
Y647638D1*
X824950D1*
X1049213Y1143701D2*
D16*
Y1226378D1*
D14*
X1185138D1*
D16*
Y1146605D1*
D15*
Y1226378D1*
D14*
X1320866D1*
D15*
Y1147638D1*
D14*
Y1226378D1*
X1486072D1*
D15*
Y985728D1*
Y1226378D2*
D14*
Y1308907D1*
X1487944Y1310778D1*
X1768701D1*
X905512Y882874D2*
Y1226378D1*
X1049213D1*
D15*
Y1143701D1*
X986220Y612205D2*
Y635827D1*
X905512D1*
Y647638D1*
X968504Y779528D2*
X905512D1*
X518406Y596555D2*
Y506201D1*
X824950D1*
X826081Y507332D1*
X962647D1*
X555118Y1062992D2*
X681201D1*
Y1062450D1*
X518406Y931201D2*
Y945571D1*
X535433Y962598D1*
Y1062992D1*
X555118D1*
X731201Y1268701D2*
X756004Y1243898D1*
Y1062450D1*
Y931201D1*
X656201D1*
X1181201Y693849D2*
X1096457D1*
Y612205D1*
Y507332D1*
X1025639D1*
X1181201Y874951D2*
D16*
X1182136Y874016D1*
X1043701D1*
Y882874D1*
X1043307Y882480D1*
Y779528D1*
X1049213Y1033465D2*
D14*
Y964567D1*
X1185138D1*
Y1036369D1*
D15*
Y964567D1*
D14*
X1320866D1*
D15*
Y1047638D1*
X1181201Y784400D2*
X1409547D1*
X1412747Y781201D1*
X1518701D1*
X1599951Y912451D2*
X1598425Y910925D1*
X1486072D1*
X1518701Y781201D2*
D17*
D3*
X1320866Y1047638D2*
D15*
Y907480D1*
X1486072D1*
Y910925D1*
X1489517Y907480D1*
X1409449D1*
D14*
Y779528D1*
D15*
X1425197D1*
Y781201D1*
X1518701D1*
X1181201Y784400D2*
D17*
Y783465D1*
X1114173D1*
Y734252D1*
X1005906D1*
Y927165D1*
X1251969D1*
Y832677D1*
X1183071D1*
Y785433D1*
X1161417D1*
X1162450Y784400D1*
X1181201D1*
X1338583Y964567D2*
D16*
X1320866Y907480D1*
X1409449D2*
D14*
X1320866D1*
Y964567D1*
X1409547Y784400D2*
D16*
X1408514Y785433D1*
D14*
X1259843D1*
X1599951Y987255D2*
D15*
X1598425D1*
Y1106201D1*
X1768701D1*
Y742028D2*
X1767717Y743012D1*
Y781201D1*
X1593504D1*
X481202Y1268701D2*
Y1237451D1*
X444882Y1201131D1*
Y1062992D1*
D18*
X824950Y506201D3*
Y581004D3*
D19*
X1049213Y1033465D3*
Y1143701D3*
D20*
X681201Y1062450D3*
X756004D3*
D21*
X1096457Y612205D3*
X986220D3*
D20*
X1043307Y779528D3*
X968504D3*
D19*
X1185138Y1036369D3*
Y1146605D3*
D23*
X1320866Y1147638D3*
Y1047638D3*
D24*
X656201Y931201D3*
X518406D3*
Y596555D3*
X656201D3*
D25*
X962647Y507332D3*
X1025639D3*
D20*
X1043701Y882874D3*
X968898D3*
D18*
X1486072Y910925D3*
Y985728D3*
X1599951Y912451D3*
Y987255D3*
D20*
X1518701Y781201D3*
X1593504D3*
D27*
X1181201Y874951D3*
Y784400D3*
Y693849D3*
D28*
X1409547Y784400D3*
D29*
X1768701Y1106201D3*
D30*
X481202Y1268701D3*
X731201D3*
D29*
X1768701Y742028D3*
D21*
X444882Y1062992D3*
X555118D3*
D29*
X1768701Y1310778D3*
M02*
