G04 DipTrace 3.2.0.1*
G04 TopDimension.gbr*
%MOIN*%
G04 #@! TF.FileFunction,Drawing,Top*
G04 #@! TF.Part,Single*
%ADD13C,0.001378*%
%ADD56C,0.006176*%
%FSLAX26Y26*%
G04*
G70*
G90*
G75*
G01*
G04 TopDimension*
%LPD*%
X1916339Y1104232D2*
D13*
X2073819D1*
X1941929Y747933D2*
X2073819D1*
X2054134Y926083D2*
Y1064862D1*
G36*
Y1104232D2*
X2062008Y1064862D1*
X2046260D1*
X2054134Y1104232D1*
G37*
Y926083D2*
D13*
Y787303D1*
G36*
Y747933D2*
X2046260Y787303D1*
X2062008D1*
X2054134Y747933D1*
G37*
X412450Y1356201D2*
D13*
X236516D1*
X256201Y356201D2*
X236516D1*
X256201Y856201D2*
Y1316831D1*
G36*
Y1356201D2*
X264075Y1316831D1*
X248327D1*
X256201Y1356201D1*
G37*
Y856201D2*
D13*
Y395571D1*
G36*
Y356201D2*
X248327Y395571D1*
X264075D1*
X256201Y356201D1*
G37*
X381201Y1418701D2*
D13*
Y1544636D1*
X1937451Y1312451D2*
Y1544636D1*
X1159326Y1524951D2*
X420571D1*
G36*
X381201D2*
X420571Y1532825D1*
Y1517077D1*
X381201Y1524951D1*
G37*
X1159326D2*
D13*
X1898081D1*
G36*
X1937451D2*
X1898081Y1517077D1*
Y1532825D1*
X1937451Y1524951D1*
G37*
X1108268Y940945D2*
D13*
X1003937D1*
X1023622Y931102D2*
X1003937D1*
X1023622Y940945D2*
Y931102D1*
Y1000000D2*
Y980315D1*
G36*
Y940945D2*
X1015748Y980315D1*
X1031496D1*
X1023622Y940945D1*
G37*
Y872047D2*
D13*
Y891732D1*
G36*
Y931102D2*
X1031496Y891732D1*
X1015748D1*
X1023622Y931102D1*
G37*
Y1101600D2*
D13*
Y940945D1*
X395669Y1415354D2*
Y1472441D1*
X1893701Y1370079D2*
Y1472441D1*
X1144685Y1452756D2*
X435039D1*
G36*
X395669D2*
X435039Y1460630D1*
Y1444882D1*
X395669Y1452756D1*
G37*
X1144685D2*
D13*
X1854331D1*
G36*
X1893701D2*
X1854331Y1444882D1*
Y1460630D1*
X1893701Y1452756D1*
G37*
X433071Y1393701D2*
D13*
X51181D1*
X332677Y393701D2*
X51181D1*
X70866Y893701D2*
Y1354331D1*
G36*
Y1393701D2*
X78740Y1354331D1*
X62992D1*
X70866Y1393701D1*
G37*
Y893701D2*
D13*
Y433071D1*
G36*
Y393701D2*
X62992Y433071D1*
X78740D1*
X70866Y393701D1*
G37*
X805118Y1375984D2*
D13*
X990157D1*
X970472Y1393701D2*
X950787D1*
X970472D2*
Y1375984D1*
Y1452756D2*
Y1433071D1*
G36*
Y1393701D2*
X962598Y1433071D1*
X978346D1*
X970472Y1393701D1*
G37*
Y1316929D2*
D13*
Y1336614D1*
G36*
Y1375984D2*
X978346Y1336614D1*
X962598D1*
X970472Y1375984D1*
G37*
Y1213428D2*
D13*
Y1393701D1*
X2093139Y957793D2*
D56*
X2087391Y959739D1*
X2083544Y963541D1*
X2081643Y969289D1*
Y971191D1*
X2083544Y976939D1*
X2087391Y980741D1*
X2093139Y982687D1*
X2095041D1*
X2100789Y980741D1*
X2104591Y976939D1*
X2106492Y971191D1*
Y969289D1*
X2104591Y963541D1*
X2100789Y959739D1*
X2093139Y957793D1*
X2083544D1*
X2073994Y959739D1*
X2068246Y963541D1*
X2066345Y969289D1*
Y973092D1*
X2068246Y978840D1*
X2072093Y980741D1*
X2070191Y943541D2*
X2068246Y945442D1*
X2066345Y943541D1*
X2068246Y941595D1*
X2070191Y943541D1*
X2106492Y917748D2*
X2104591Y923496D1*
X2098843Y927342D1*
X2089293Y929244D1*
X2083544D1*
X2073994Y927342D1*
X2068246Y923496D1*
X2066345Y917748D1*
Y913945D1*
X2068246Y908197D1*
X2073994Y904395D1*
X2083544Y902449D1*
X2089293D1*
X2098843Y904395D1*
X2104591Y908197D1*
X2106492Y913945D1*
Y917748D1*
X2098843Y904395D2*
X2073994Y927342D1*
X2106492Y867150D2*
Y886251D1*
X2089293Y888152D1*
X2091194Y886251D1*
X2093139Y880503D1*
Y874799D1*
X2091194Y869051D1*
X2087391Y865204D1*
X2081643Y863303D1*
X2077841D1*
X2072093Y865204D1*
X2068246Y869051D1*
X2066345Y874799D1*
Y880503D1*
X2068246Y886251D1*
X2070191Y888152D1*
X2073994Y890098D1*
X213393Y799641D2*
X211492D1*
X207645Y801542D1*
X205744Y803444D1*
X203842Y807290D1*
Y814940D1*
X205744Y818742D1*
X207645Y820643D1*
X211492Y822589D1*
X215294D1*
X219141Y820643D1*
X224845Y816841D1*
X243990Y797696D1*
Y824490D1*
X203842Y859789D2*
Y840688D1*
X221042Y838787D1*
X219141Y840688D1*
X217195Y846436D1*
Y852140D1*
X219141Y857888D1*
X222943Y861735D1*
X228691Y863636D1*
X232494D1*
X238242Y861735D1*
X242089Y857888D1*
X243990Y852140D1*
Y846436D1*
X242089Y840688D1*
X240143Y838787D1*
X236341Y836842D1*
X240143Y877889D2*
X242089Y875988D1*
X243990Y877889D1*
X242089Y879834D1*
X240143Y877889D1*
X243990Y911331D2*
X203842D1*
X230593Y892186D1*
Y920882D1*
X1086996Y1577310D2*
X1107998D1*
X1096546Y1562011D1*
X1102294D1*
X1106097Y1560110D1*
X1107998Y1558209D1*
X1109944Y1552461D1*
Y1548658D1*
X1107998Y1542910D1*
X1104196Y1539063D1*
X1098448Y1537162D1*
X1092700D1*
X1086996Y1539063D1*
X1085095Y1541009D1*
X1083149Y1544812D1*
X1147189Y1563957D2*
X1145243Y1558209D1*
X1141441Y1554362D1*
X1135692Y1552461D1*
X1133791D1*
X1128043Y1554362D1*
X1124241Y1558209D1*
X1122295Y1563957D1*
Y1565858D1*
X1124241Y1571606D1*
X1128043Y1575409D1*
X1133791Y1577310D1*
X1135692D1*
X1141441Y1575409D1*
X1145243Y1571606D1*
X1147189Y1563957D1*
Y1554362D1*
X1145243Y1544812D1*
X1141441Y1539063D1*
X1135692Y1537162D1*
X1131890D1*
X1126142Y1539063D1*
X1124241Y1542910D1*
X1161441Y1541009D2*
X1159540Y1539063D1*
X1161441Y1537162D1*
X1163387Y1539063D1*
X1161441Y1541009D1*
X1198686Y1577310D2*
X1179585D1*
X1177684Y1560110D1*
X1179585Y1562011D1*
X1185333Y1563957D1*
X1191037D1*
X1196785Y1562011D1*
X1200632Y1558209D1*
X1202533Y1552461D1*
Y1548658D1*
X1200632Y1542910D1*
X1196785Y1539063D1*
X1191037Y1537162D1*
X1185333D1*
X1179585Y1539063D1*
X1177684Y1541009D1*
X1175738Y1544812D1*
X1218731Y1577310D2*
X1239733D1*
X1228282Y1562011D1*
X1234030D1*
X1237832Y1560110D1*
X1239733Y1558209D1*
X1241679Y1552461D1*
Y1548658D1*
X1239733Y1542910D1*
X1235931Y1539063D1*
X1230183Y1537162D1*
X1224435D1*
X1218731Y1539063D1*
X1216830Y1541009D1*
X1214884Y1544812D1*
X971264Y1001075D2*
X973165Y995327D1*
X978913Y991480D1*
X988463Y989579D1*
X994211D1*
X1003762Y991480D1*
X1009510Y995327D1*
X1011411Y1001075D1*
Y1004877D1*
X1009510Y1010625D1*
X1003762Y1014428D1*
X994211Y1016373D1*
X988463D1*
X978913Y1014428D1*
X973165Y1010625D1*
X971264Y1004877D1*
Y1001075D1*
X978913Y1014428D2*
X1003762Y991480D1*
X1007565Y1030626D2*
X1009510Y1028725D1*
X1011411Y1030626D1*
X1009510Y1032571D1*
X1007565Y1030626D1*
X980814Y1046868D2*
X978913D1*
X975066Y1048769D1*
X973165Y1050671D1*
X971264Y1054518D1*
Y1062167D1*
X973165Y1065969D1*
X975066Y1067871D1*
X978913Y1069816D1*
X982715D1*
X986562Y1067871D1*
X992266Y1064068D1*
X1011411Y1044923D1*
Y1071717D1*
X971264Y1107017D2*
Y1087916D1*
X988463Y1086014D1*
X986562Y1087916D1*
X984617Y1093664D1*
Y1099367D1*
X986562Y1105115D1*
X990365Y1108962D1*
X996113Y1110863D1*
X999915D1*
X1005663Y1108962D1*
X1009510Y1105115D1*
X1011411Y1099367D1*
Y1093664D1*
X1009510Y1087916D1*
X1007565Y1086014D1*
X1003762Y1084069D1*
X1071426Y1505114D2*
X1092429D1*
X1080977Y1489816D1*
X1086725D1*
X1090527Y1487915D1*
X1092429Y1486013D1*
X1094374Y1480265D1*
Y1476463D1*
X1092429Y1470715D1*
X1088626Y1466868D1*
X1082878Y1464967D1*
X1077130D1*
X1071426Y1466868D1*
X1069525Y1468813D1*
X1067579Y1472616D1*
X1116276Y1505114D2*
X1110572Y1503213D1*
X1108627Y1499411D1*
Y1495564D1*
X1110572Y1491761D1*
X1114375Y1489816D1*
X1122024Y1487915D1*
X1127772Y1486013D1*
X1131575Y1482167D1*
X1133476Y1478364D1*
Y1472616D1*
X1131575Y1468813D1*
X1129673Y1466868D1*
X1123925Y1464967D1*
X1116276D1*
X1110572Y1466868D1*
X1108627Y1468813D1*
X1106726Y1472616D1*
Y1478364D1*
X1108627Y1482167D1*
X1112474Y1486013D1*
X1118177Y1487915D1*
X1125827Y1489816D1*
X1129673Y1491761D1*
X1131575Y1495564D1*
Y1499411D1*
X1129673Y1503213D1*
X1123925Y1505114D1*
X1116276D1*
X1147729Y1468813D2*
X1145827Y1466868D1*
X1147729Y1464967D1*
X1149674Y1466868D1*
X1147729Y1468813D1*
X1173522Y1505114D2*
X1167774Y1503213D1*
X1163927Y1497465D1*
X1162026Y1487915D1*
Y1482167D1*
X1163927Y1472616D1*
X1167774Y1466868D1*
X1173522Y1464967D1*
X1177324D1*
X1183072Y1466868D1*
X1186875Y1472616D1*
X1188820Y1482167D1*
Y1487915D1*
X1186875Y1497465D1*
X1183072Y1503213D1*
X1177324Y1505114D1*
X1173522D1*
X1186875Y1497465D2*
X1163927Y1472616D1*
X1224120Y1505114D2*
X1205018D1*
X1203117Y1487915D1*
X1205018Y1489816D1*
X1210766Y1491761D1*
X1216470D1*
X1222218Y1489816D1*
X1226065Y1486013D1*
X1227966Y1480265D1*
Y1476463D1*
X1226065Y1470715D1*
X1222218Y1466868D1*
X1216470Y1464967D1*
X1210766D1*
X1205018Y1466868D1*
X1203117Y1468813D1*
X1201172Y1472616D1*
X28058Y837141D2*
X26157D1*
X22310Y839042D1*
X20409Y840944D1*
X18508Y844790D1*
Y852440D1*
X20409Y856242D1*
X22310Y858143D1*
X26157Y860089D1*
X29959D1*
X33806Y858143D1*
X39510Y854341D1*
X58655Y835196D1*
Y861990D1*
X18508Y897289D2*
Y878188D1*
X35707Y876287D1*
X33806Y878188D1*
X31861Y883936D1*
Y889640D1*
X33806Y895388D1*
X37609Y899235D1*
X43357Y901136D1*
X47159D1*
X52907Y899235D1*
X56754Y895388D1*
X58655Y889640D1*
Y883936D1*
X56754Y878188D1*
X54809Y876287D1*
X51006Y874342D1*
X54809Y915389D2*
X56754Y913488D1*
X58655Y915389D1*
X56754Y917334D1*
X54809Y915389D1*
X58655Y948831D2*
X18508D1*
X45258Y929686D1*
Y958382D1*
X1022831Y1315855D2*
X1020930Y1321603D1*
X1015182Y1325449D1*
X1005631Y1327351D1*
X999883D1*
X990333Y1325449D1*
X984584Y1321603D1*
X982683Y1315855D1*
Y1312052D1*
X984584Y1306304D1*
X990333Y1302501D1*
X999883Y1300556D1*
X1005631D1*
X1015182Y1302501D1*
X1020930Y1306304D1*
X1022831Y1312052D1*
Y1315855D1*
X1015182Y1302501D2*
X990333Y1325449D1*
X986530Y1286303D2*
X984584Y1288205D1*
X982683Y1286303D1*
X984584Y1284358D1*
X986530Y1286303D1*
X982683Y1252861D2*
X1022831D1*
X996081Y1272006D1*
Y1243310D1*
X1022831Y1208011D2*
Y1227112D1*
X1005631Y1229014D1*
X1007532Y1227112D1*
X1009478Y1221364D1*
Y1215660D1*
X1007532Y1209912D1*
X1003730Y1206066D1*
X997982Y1204164D1*
X994179D1*
X988431Y1206066D1*
X984584Y1209912D1*
X982683Y1215660D1*
Y1221364D1*
X984584Y1227112D1*
X986530Y1229014D1*
X990333Y1230959D1*
M02*
