G04 DipTrace 3.2.0.1*
G04 TopSilk.gbr*
%MOIN*%
G04 #@! TF.FileFunction,Legend,Top*
G04 #@! TF.Part,Single*
%ADD10C,0.009843*%
%ADD22C,0.015756*%
%ADD26C,0.015431*%
%ADD53C,0.004632*%
%ADD54C,0.00772*%
%ADD55C,0.003088*%
%FSLAX26Y26*%
G04*
G70*
G90*
G75*
G01*
G04 TopSilk*
%LPD*%
X850521Y464841D2*
D10*
X799379D1*
X1080677Y1084252D2*
X1017748D1*
X1080677Y1076803D2*
X1017748D1*
X1080677D2*
Y1100362D1*
X1017748Y1076803D2*
Y1100362D1*
X639841Y1036879D2*
Y1088021D1*
X1045669Y643669D2*
Y580740D1*
X1053118Y643669D2*
Y580740D1*
Y643669D2*
X1029559D1*
X1053118Y580740D2*
X1029559D1*
X1084667Y805098D2*
Y753957D1*
X1216602Y1087156D2*
X1153673D1*
X1216602Y1079707D2*
X1153673D1*
X1216602D2*
Y1103266D1*
X1153673Y1079707D2*
Y1103266D1*
D22*
X1320866Y999210D3*
X1373740Y1007631D2*
D10*
Y1187638D1*
X1267992Y1007631D2*
Y1187638D1*
X744823Y959799D2*
Y841744D1*
X743806Y959756D2*
X711562Y959713D1*
X743806Y683976D2*
Y565965D1*
X427177Y687224D2*
Y569213D1*
X427273Y957547D2*
Y839492D1*
X743711Y564882D2*
X711467Y564839D1*
X459422Y959756D2*
X427177Y959713D1*
X459390Y567047D2*
X427146Y567004D1*
D26*
X1151006Y913281D3*
X1240256Y914320D2*
D10*
Y654490D1*
X1350492Y914320D2*
Y654490D1*
X1240256D2*
X1350492D1*
X1240256Y914320D2*
X1350492D1*
X488220Y1031528D2*
X511780D1*
X488220Y1094457D2*
X511780D1*
X901740Y562646D2*
D53*
X900314Y565498D1*
X897429Y568383D1*
X894577Y569809D1*
X888840D1*
X885955Y568383D1*
X883103Y565498D1*
X881644Y562646D1*
X880218Y558335D1*
Y551139D1*
X881644Y546861D1*
X883103Y543976D1*
X885955Y541124D1*
X888840Y539665D1*
X894577D1*
X897429Y541124D1*
X900314Y543976D1*
X901740Y546861D1*
X912463Y562613D2*
Y564039D1*
X913889Y566924D1*
X915315Y568350D1*
X918200Y569776D1*
X923937D1*
X926789Y568350D1*
X928214Y566924D1*
X929674Y564039D1*
Y561187D1*
X928214Y558302D1*
X925363Y554024D1*
X911004Y539665D1*
X931100D1*
X972459Y1150944D2*
X971033Y1153796D1*
X968148Y1156681D1*
X965296Y1158107D1*
X959559D1*
X956674Y1156681D1*
X953822Y1153796D1*
X952363Y1150944D1*
X950937Y1146633D1*
Y1139437D1*
X952363Y1135159D1*
X953822Y1132274D1*
X956674Y1129422D1*
X959559Y1127963D1*
X965296D1*
X968148Y1129422D1*
X971033Y1132274D1*
X972459Y1135159D1*
X998934Y1158074D2*
X984608D1*
X983182Y1145174D1*
X984608Y1146600D1*
X988919Y1148059D1*
X993197D1*
X997508Y1146600D1*
X1000393Y1143748D1*
X1001819Y1139437D1*
Y1136585D1*
X1000393Y1132274D1*
X997508Y1129389D1*
X993197Y1127963D1*
X988919D1*
X984608Y1129389D1*
X983182Y1130848D1*
X981723Y1133700D1*
X707529Y1128749D2*
X706103Y1131601D1*
X703218Y1134486D1*
X700366Y1135912D1*
X694629D1*
X691744Y1134486D1*
X688892Y1131601D1*
X687433Y1128749D1*
X686007Y1124438D1*
Y1117241D1*
X687433Y1112964D1*
X688892Y1110079D1*
X691744Y1107227D1*
X694629Y1105768D1*
X700366D1*
X703218Y1107227D1*
X706103Y1110079D1*
X707529Y1112964D1*
X734003Y1131601D2*
X732577Y1134452D1*
X728266Y1135878D1*
X725414D1*
X721103Y1134452D1*
X718218Y1130141D1*
X716792Y1122978D1*
Y1115816D1*
X718218Y1110079D1*
X721103Y1107193D1*
X725414Y1105768D1*
X726840D1*
X731118Y1107193D1*
X734003Y1110079D1*
X735429Y1114390D1*
Y1115816D1*
X734003Y1120127D1*
X731118Y1122978D1*
X726840Y1124404D1*
X725414D1*
X721103Y1122978D1*
X718218Y1120127D1*
X716792Y1115816D1*
X1035451Y696220D2*
X1034025Y699072D1*
X1031140Y701957D1*
X1028288Y703383D1*
X1022551D1*
X1019666Y701957D1*
X1016814Y699072D1*
X1015355Y696220D1*
X1013929Y691909D1*
Y684713D1*
X1015355Y680435D1*
X1016814Y677550D1*
X1019666Y674698D1*
X1022551Y673239D1*
X1028288D1*
X1031140Y674698D1*
X1034025Y677550D1*
X1035451Y680435D1*
X1050452Y673239D2*
X1064811Y703350D1*
X1044715D1*
X1098470Y841889D2*
X1097045Y844741D1*
X1094159Y847626D1*
X1091308Y849052D1*
X1085571D1*
X1082686Y847626D1*
X1079834Y844741D1*
X1078374Y841889D1*
X1076949Y837578D1*
Y830382D1*
X1078374Y826104D1*
X1079834Y823219D1*
X1082686Y820367D1*
X1085571Y818908D1*
X1091308D1*
X1094159Y820367D1*
X1097045Y823219D1*
X1098470Y826104D1*
X1114897Y849019D2*
X1110619Y847593D1*
X1109160Y844741D1*
Y841856D1*
X1110619Y839004D1*
X1113471Y837545D1*
X1119208Y836119D1*
X1123519Y834693D1*
X1126371Y831808D1*
X1127797Y828956D1*
Y824645D1*
X1126371Y821793D1*
X1124945Y820334D1*
X1120634Y818908D1*
X1114897D1*
X1110619Y820334D1*
X1109160Y821793D1*
X1107734Y824645D1*
Y828956D1*
X1109160Y831808D1*
X1112045Y834693D1*
X1116323Y836119D1*
X1122060Y837545D1*
X1124945Y839004D1*
X1126371Y841856D1*
Y844741D1*
X1124945Y847593D1*
X1120634Y849019D1*
X1114897D1*
X1115003Y1151880D2*
X1113577Y1154732D1*
X1110692Y1157617D1*
X1107840Y1159043D1*
X1102103D1*
X1099218Y1157617D1*
X1096366Y1154732D1*
X1094907Y1151880D1*
X1093481Y1147569D1*
Y1140373D1*
X1094907Y1136095D1*
X1096366Y1133210D1*
X1099218Y1130358D1*
X1102103Y1128899D1*
X1107840D1*
X1110692Y1130358D1*
X1113577Y1133210D1*
X1115003Y1136095D1*
X1142936Y1148995D2*
X1141477Y1144684D1*
X1138625Y1141799D1*
X1134314Y1140373D1*
X1132888D1*
X1128577Y1141799D1*
X1125726Y1144684D1*
X1124266Y1148995D1*
Y1150421D1*
X1125726Y1154732D1*
X1128577Y1157584D1*
X1132888Y1159010D1*
X1134314D1*
X1138625Y1157584D1*
X1141477Y1154732D1*
X1142936Y1148995D1*
Y1141799D1*
X1141477Y1134636D1*
X1138625Y1130325D1*
X1134314Y1128899D1*
X1131462D1*
X1127151Y1130325D1*
X1125726Y1133210D1*
X1419774Y1102637D2*
X1418348Y1105489D1*
X1415463Y1108374D1*
X1412611Y1109800D1*
X1406874D1*
X1403989Y1108374D1*
X1401137Y1105489D1*
X1399678Y1102637D1*
X1398252Y1098326D1*
Y1091130D1*
X1399678Y1086852D1*
X1401137Y1083967D1*
X1403989Y1081115D1*
X1406874Y1079656D1*
X1412611D1*
X1415463Y1081115D1*
X1418348Y1083967D1*
X1419774Y1086852D1*
X1429037Y1104030D2*
X1431922Y1105489D1*
X1436233Y1109767D1*
Y1079656D1*
X1445497Y1104030D2*
X1448382Y1105489D1*
X1452693Y1109767D1*
Y1079656D1*
X432778Y510568D2*
Y480424D1*
X449989D1*
X460711Y503372D2*
Y504798D1*
X462137Y507683D1*
X463563Y509109D1*
X466448Y510535D1*
X472185D1*
X475037Y509109D1*
X476463Y507683D1*
X477922Y504798D1*
Y501946D1*
X476463Y499061D1*
X473611Y494783D1*
X459252Y480424D1*
X479348D1*
X981245Y474494D2*
Y444350D1*
X998456D1*
X1007719Y468724D2*
X1010604Y470183D1*
X1014915Y474461D1*
Y444350D1*
X1084478Y904575D2*
X1097378D1*
X1101689Y906034D1*
X1103148Y907460D1*
X1104574Y910312D1*
Y913197D1*
X1103148Y916049D1*
X1101689Y917508D1*
X1097378Y918934D1*
X1084478D1*
Y888790D1*
X1094526Y904575D2*
X1104574Y888790D1*
X1113838Y913164D2*
X1116723Y914623D1*
X1121034Y918901D1*
Y888790D1*
X1390478Y958217D2*
X1403378D1*
X1407689Y959676D1*
X1409148Y961102D1*
X1410574Y963954D1*
Y966839D1*
X1409148Y969691D1*
X1407689Y971150D1*
X1403378Y972576D1*
X1390478D1*
Y942432D1*
X1400526Y958217D2*
X1410574Y942432D1*
X1421297Y965379D2*
Y966805D1*
X1422723Y969691D1*
X1424149Y971116D1*
X1427034Y972542D1*
X1432771D1*
X1435623Y971116D1*
X1437049Y969691D1*
X1438508Y966805D1*
Y963954D1*
X1437049Y961068D1*
X1434197Y956791D1*
X1419838Y942432D1*
X1439934D1*
X1648058Y955806D2*
X1660958D1*
X1665269Y957265D1*
X1666728Y958691D1*
X1668154Y961543D1*
Y964428D1*
X1666728Y967280D1*
X1665269Y968739D1*
X1660958Y970165D1*
X1648058D1*
Y940021D1*
X1658106Y955806D2*
X1668154Y940021D1*
X1680303Y970132D2*
X1696055D1*
X1687466Y958658D1*
X1691777D1*
X1694629Y957232D1*
X1696055Y955806D1*
X1697514Y951495D1*
Y948643D1*
X1696055Y944332D1*
X1693203Y941447D1*
X1688892Y940021D1*
X1684581D1*
X1680303Y941447D1*
X1678877Y942906D1*
X1677418Y945758D1*
X1532630Y846209D2*
X1545530D1*
X1549841Y847668D1*
X1551300Y849094D1*
X1552726Y851946D1*
Y854831D1*
X1551300Y857683D1*
X1549841Y859142D1*
X1545530Y860568D1*
X1532630D1*
Y830424D1*
X1542678Y846209D2*
X1552726Y830424D1*
X1576349D2*
Y860535D1*
X1561990Y840472D1*
X1583512D1*
X1277096Y624365D2*
Y602843D1*
X1278522Y598532D1*
X1281407Y595680D1*
X1285718Y594221D1*
X1288570D1*
X1292881Y595680D1*
X1295766Y598532D1*
X1297192Y602843D1*
Y624365D1*
X1306456Y618595D2*
X1309341Y620054D1*
X1313652Y624332D1*
Y594221D1*
X1589006Y1179662D2*
X1609102Y1149518D1*
Y1179662D2*
X1589006Y1149518D1*
X1618365Y1173892D2*
X1621250Y1175351D1*
X1625561Y1179629D1*
Y1149518D1*
X564742Y1196493D2*
X584838Y1166349D1*
Y1196493D2*
X564742Y1166349D1*
X595561Y1189297D2*
Y1190723D1*
X596987Y1193608D1*
X598413Y1195034D1*
X601298Y1196460D1*
X607035D1*
X609887Y1195034D1*
X611313Y1193608D1*
X612772Y1190723D1*
Y1187871D1*
X611313Y1184986D1*
X608461Y1180708D1*
X594102Y1166349D1*
X614198D1*
X814741Y1198461D2*
X834837Y1168317D1*
Y1198461D2*
X814741Y1168317D1*
X846985Y1198428D2*
X862737D1*
X854148Y1186954D1*
X858459D1*
X861311Y1185528D1*
X862737Y1184102D1*
X864196Y1179791D1*
Y1176939D1*
X862737Y1172628D1*
X859885Y1169743D1*
X855574Y1168317D1*
X851263D1*
X846985Y1169743D1*
X845559Y1171202D1*
X844100Y1174054D1*
X1597591Y667851D2*
X1617687Y637707D1*
Y667851D2*
X1597591Y637707D1*
X1641309D2*
Y667818D1*
X1626950Y647755D1*
X1648472D1*
X501105Y1142359D2*
X482435D1*
Y1112215D1*
Y1128000D2*
X493909D1*
X510369Y1136589D2*
X513254Y1138048D1*
X517565Y1142326D1*
Y1112215D1*
X1584524Y1270066D2*
X1604620Y1239922D1*
Y1270066D2*
X1584524Y1239922D1*
X1619621D2*
X1633980Y1270033D1*
X1613884D1*
X1253966Y546645D2*
D54*
X1249213Y551453D1*
X1242028Y553830D1*
X1232466D1*
X1225281Y551453D1*
X1220473Y546645D1*
Y541892D1*
X1222905Y537083D1*
X1225281Y534707D1*
X1230034Y532330D1*
X1244404Y527522D1*
X1249213Y525145D1*
X1251589Y522713D1*
X1253966Y517960D1*
Y510775D1*
X1249213Y506022D1*
X1242028Y503590D1*
X1232466D1*
X1225281Y506022D1*
X1220473Y510775D1*
X1302899Y546645D2*
X1298145Y551453D1*
X1290960Y553830D1*
X1281399D1*
X1274214Y551453D1*
X1269405Y546645D1*
Y541892D1*
X1271837Y537083D1*
X1274214Y534707D1*
X1278967Y532330D1*
X1293337Y527522D1*
X1298145Y525145D1*
X1300522Y522713D1*
X1302899Y517960D1*
Y510775D1*
X1298145Y506022D1*
X1290960Y503590D1*
X1281399D1*
X1274214Y506022D1*
X1269405Y510775D1*
X1335085Y553830D2*
Y503590D1*
X1318338Y553830D2*
X1351831D1*
X1446988D2*
X1415871D1*
Y503590D1*
Y529898D2*
X1434995D1*
X1462427Y553830D2*
Y503590D1*
X1511360Y546645D2*
X1506607Y551453D1*
X1499422Y553830D1*
X1489860D1*
X1482675Y551453D1*
X1477867Y546645D1*
Y541892D1*
X1480298Y537083D1*
X1482675Y534707D1*
X1487428Y532330D1*
X1501798Y527522D1*
X1506607Y525145D1*
X1508983Y522713D1*
X1511360Y517960D1*
Y510775D1*
X1506607Y506022D1*
X1499422Y503590D1*
X1489860D1*
X1482675Y506022D1*
X1477867Y510775D1*
X1526799Y553830D2*
Y503590D1*
X1560293Y553830D2*
Y503590D1*
X1526799Y529898D2*
X1560293D1*
X1624333Y553830D2*
Y503590D1*
X1645888D1*
X1653073Y506022D1*
X1655450Y508398D1*
X1657826Y513152D1*
Y520337D1*
X1655450Y525145D1*
X1653073Y527522D1*
X1645888Y529898D1*
X1653073Y532330D1*
X1655450Y534707D1*
X1657826Y539460D1*
Y544268D1*
X1655450Y549022D1*
X1653073Y551453D1*
X1645888Y553830D1*
X1624333D1*
Y529898D2*
X1645888D1*
X1687635Y553830D2*
X1682827Y551453D1*
X1678074Y546645D1*
X1675642Y541892D1*
X1673265Y534707D1*
Y522713D1*
X1675642Y515584D1*
X1678074Y510775D1*
X1682827Y506022D1*
X1687635Y503590D1*
X1697197D1*
X1701950Y506022D1*
X1706759Y510775D1*
X1709135Y515584D1*
X1711512Y522713D1*
Y534707D1*
X1709135Y541892D1*
X1706759Y546645D1*
X1701950Y551453D1*
X1697197Y553830D1*
X1687635D1*
X1765198Y503590D2*
Y553830D1*
X1746074Y503590D1*
X1726951Y553830D1*
Y503590D1*
X1780637Y553830D2*
Y503590D1*
X1802192D1*
X1809377Y506022D1*
X1811754Y508398D1*
X1814130Y513152D1*
Y520337D1*
X1811754Y525145D1*
X1809377Y527522D1*
X1802192Y529898D1*
X1809377Y532330D1*
X1811754Y534707D1*
X1814130Y539460D1*
Y544268D1*
X1811754Y549022D1*
X1809377Y551453D1*
X1802192Y553830D1*
X1780637D1*
Y529898D2*
X1802192D1*
X1222866Y460220D2*
D53*
Y430076D1*
X1242962Y460220D2*
Y430076D1*
X1222866Y445861D2*
X1242962D1*
X1252225Y460220D2*
X1263699Y445861D1*
Y430076D1*
X1275173Y460220D2*
X1263699Y445861D1*
X1284437Y460220D2*
Y430076D1*
X1294485D1*
X1298796Y431535D1*
X1301681Y434387D1*
X1303107Y437272D1*
X1304533Y441550D1*
Y448746D1*
X1303107Y453057D1*
X1301681Y455909D1*
X1298796Y458794D1*
X1294485Y460220D1*
X1284437D1*
X1313796Y445861D2*
X1326696D1*
X1331007Y447320D1*
X1332466Y448746D1*
X1333892Y451598D1*
Y454483D1*
X1332466Y457335D1*
X1331007Y458794D1*
X1326696Y460220D1*
X1313796D1*
Y430076D1*
X1323844Y445861D2*
X1333892Y430076D1*
X1351778Y460220D2*
X1348893Y458794D1*
X1346041Y455909D1*
X1344582Y453057D1*
X1343156Y448746D1*
Y441550D1*
X1344582Y437272D1*
X1346041Y434387D1*
X1348893Y431535D1*
X1351778Y430076D1*
X1357515D1*
X1360367Y431535D1*
X1363252Y434387D1*
X1364678Y437272D1*
X1366104Y441550D1*
Y448746D1*
X1364678Y453057D1*
X1363252Y455909D1*
X1360367Y458794D1*
X1357515Y460220D1*
X1351778D1*
X1375367Y444435D2*
X1388300D1*
X1392578Y445861D1*
X1394037Y447320D1*
X1395463Y450172D1*
Y454483D1*
X1394037Y457335D1*
X1392578Y458794D1*
X1388300Y460220D1*
X1375367D1*
Y430076D1*
X1404727Y460220D2*
Y430076D1*
X1424823Y460220D2*
Y430076D1*
X1404727Y445861D2*
X1424823D1*
X1442708Y460220D2*
X1439823Y458794D1*
X1436971Y455909D1*
X1435512Y453057D1*
X1434086Y448746D1*
Y441550D1*
X1435512Y437272D1*
X1436971Y434387D1*
X1439823Y431535D1*
X1442708Y430076D1*
X1448445D1*
X1451297Y431535D1*
X1454182Y434387D1*
X1455608Y437272D1*
X1457034Y441550D1*
Y448746D1*
X1455608Y453057D1*
X1454182Y455909D1*
X1451297Y458794D1*
X1448445Y460220D1*
X1442708D1*
X1486394D2*
Y430076D1*
X1466298Y460220D1*
Y430076D1*
X1514294Y460220D2*
X1495657D1*
Y430076D1*
X1514294D1*
X1495657Y445861D2*
X1507131D1*
X1552718Y460220D2*
Y430076D1*
X1565652D1*
X1569963Y431535D1*
X1571388Y432961D1*
X1572814Y435813D1*
Y440124D1*
X1571388Y443009D1*
X1569963Y444435D1*
X1565652Y445861D1*
X1569963Y447320D1*
X1571388Y448746D1*
X1572814Y451598D1*
Y454483D1*
X1571388Y457335D1*
X1569963Y458794D1*
X1565652Y460220D1*
X1552718D1*
Y445861D2*
X1565652D1*
X1582078Y460220D2*
Y430076D1*
X1614323D2*
X1602816Y460220D1*
X1591342Y430076D1*
X1595653Y440124D2*
X1610012D1*
X1643682Y455909D2*
X1640830Y458794D1*
X1636519Y460220D1*
X1630782D1*
X1626471Y458794D1*
X1623586Y455909D1*
Y453057D1*
X1625045Y450172D1*
X1626471Y448746D1*
X1629323Y447320D1*
X1637945Y444435D1*
X1640830Y443009D1*
X1642256Y441550D1*
X1643682Y438698D1*
Y434387D1*
X1640830Y431535D1*
X1636519Y430076D1*
X1630782D1*
X1626471Y431535D1*
X1623586Y434387D1*
X1684692Y442228D2*
D55*
X1693292D1*
X1696166Y443201D1*
X1697139Y444151D1*
X1698090Y446052D1*
Y447976D1*
X1697139Y449877D1*
X1696166Y450850D1*
X1693292Y451801D1*
X1684692D1*
Y431705D1*
X1691391Y442228D2*
X1698090Y431705D1*
X1716690Y451801D2*
X1704265D1*
Y431705D1*
X1716690D1*
X1704265Y442228D2*
X1711915D1*
X1722866Y451801D2*
X1730515Y431705D1*
X1738164Y451801D1*
X1744340Y447954D2*
X1746263Y448926D1*
X1749137Y451778D1*
Y431705D1*
X1775726Y447003D2*
Y447954D1*
X1776677Y449877D1*
X1777627Y450828D1*
X1779551Y451778D1*
X1783375D1*
X1785277Y450828D1*
X1786227Y449877D1*
X1787200Y447954D1*
Y446052D1*
X1786227Y444129D1*
X1784326Y441277D1*
X1774753Y431705D1*
X1788151D1*
X1800074Y451778D2*
X1797200Y450828D1*
X1795277Y447954D1*
X1794326Y443178D1*
Y440304D1*
X1795277Y435529D1*
X1797200Y432655D1*
X1800074Y431705D1*
X1801976D1*
X1804850Y432655D1*
X1806751Y435529D1*
X1807724Y440304D1*
Y443178D1*
X1806751Y447954D1*
X1804850Y450828D1*
X1801976Y451778D1*
X1800074D1*
X1806751Y447954D2*
X1795277Y435529D1*
X1813899Y447954D2*
X1815823Y448926D1*
X1818697Y451778D1*
Y431705D1*
X1837319Y445102D2*
X1836346Y442228D1*
X1834445Y440304D1*
X1831571Y439354D1*
X1830621D1*
X1827747Y440304D1*
X1825845Y442228D1*
X1824872Y445102D1*
Y446052D1*
X1825845Y448926D1*
X1827747Y450828D1*
X1830621Y451778D1*
X1831571D1*
X1834445Y450828D1*
X1836346Y448926D1*
X1837319Y445102D1*
Y440304D1*
X1836346Y435529D1*
X1834445Y432655D1*
X1831571Y431705D1*
X1829670D1*
X1826796Y432655D1*
X1825845Y434579D1*
X573140Y1269022D2*
D53*
X603284Y1280496D1*
X573140Y1291970D1*
Y1301233D2*
X603284D1*
X573140Y1330593D2*
X603284D1*
X573140Y1310497D1*
X603284D1*
X575312Y1352756D2*
X601145D1*
X588245Y1339856D2*
Y1365689D1*
X826388Y1277585D2*
X856532Y1289059D1*
X826388Y1300533D1*
Y1309796D2*
X856532D1*
X826388Y1339156D2*
X856532D1*
X826388Y1319060D1*
X856532D1*
X841476Y1348419D2*
Y1365000D1*
X1799428Y1214868D2*
X1798002Y1217720D1*
X1795117Y1220605D1*
X1792265Y1222031D1*
X1786528D1*
X1783643Y1220605D1*
X1780792Y1217720D1*
X1779332Y1214868D1*
X1777906Y1210557D1*
Y1203361D1*
X1779332Y1199083D1*
X1780792Y1196198D1*
X1783643Y1193346D1*
X1786528Y1191887D1*
X1792265D1*
X1795117Y1193346D1*
X1798002Y1196198D1*
X1799428Y1199083D1*
Y1203361D1*
X1792265D1*
X1828788Y1222031D2*
Y1191887D1*
X1808692Y1222031D1*
Y1191887D1*
X1838051Y1222031D2*
Y1191887D1*
X1848099D1*
X1852411Y1193346D1*
X1855296Y1196198D1*
X1856722Y1199083D1*
X1858147Y1203361D1*
Y1210557D1*
X1856722Y1214868D1*
X1855296Y1217720D1*
X1852411Y1220605D1*
X1848099Y1222031D1*
X1838051D1*
X1756253Y1007464D2*
Y977320D1*
X1773464D1*
X1801364Y1007464D2*
X1782727D1*
Y977320D1*
X1801364D1*
X1782727Y993105D2*
X1794201D1*
X1829298Y1007464D2*
X1810628D1*
Y977320D1*
Y993105D2*
X1822102D1*
X1848609Y1007464D2*
Y977320D1*
X1838561Y1007464D2*
X1858657D1*
X1750347Y849404D2*
X1763247D1*
X1767558Y850863D1*
X1769017Y852289D1*
X1770443Y855141D1*
Y858026D1*
X1769017Y860878D1*
X1767558Y862337D1*
X1763247Y863763D1*
X1750347D1*
Y833619D1*
X1760395Y849404D2*
X1770443Y833619D1*
X1779707Y863763D2*
Y833619D1*
X1810492Y856600D2*
X1809066Y859452D1*
X1806181Y862337D1*
X1803330Y863763D1*
X1797593D1*
X1794707Y862337D1*
X1791856Y859452D1*
X1790396Y856600D1*
X1788970Y852289D1*
Y845093D1*
X1790396Y840815D1*
X1791856Y837930D1*
X1794707Y835078D1*
X1797593Y833619D1*
X1803330D1*
X1806181Y835078D1*
X1809066Y837930D1*
X1810492Y840815D1*
Y845093D1*
X1803330D1*
X1819756Y863763D2*
Y833619D1*
X1839852Y863763D2*
Y833619D1*
X1819756Y849404D2*
X1839852D1*
X1859164Y863763D2*
Y833619D1*
X1849116Y863763D2*
X1869212D1*
M02*
